<svg xmlns="http://www.w3.org/2000/svg" width="30" height="30"><path d="M22.458 0H7.518A7.535 7.535 0 0 0 0 7.52V22.5A7.531 7.531 0 0 0 7.518 30h14.964A7.535 7.535 0 0 0 30 22.48V7.52A7.571 7.571 0 0 0 22.458 0zM9.992 24.29H5.71V11.9h4.282v12.39zM7.827 10a2.19 2.19 0 1 1 2.189-2.19A2.217 2.217 0 0 1 7.827 10zM24.29 24.29H20.7v-6c0-1.46-.19-3.31-2.165-3.31-2.022 0-2.355 1.57-2.355 3.21v6.1h-3.569V11.9h3.331v1.67h.1c.523-.95 1.737-1.69 3.64-1.69 3.925 0 4.615 2.26 4.615 5.62v6.79z" fill="#fff" fill-rule="evenodd" opacity=".5"/></svg>