<svg xmlns="http://www.w3.org/2000/svg" width="30" height="30"><path d="M22.458 0H7.518A7.535 7.535 0 0 0 0 7.52V22.5A7.531 7.531 0 0 0 7.518 30h14.964A7.535 7.535 0 0 0 30 22.48V7.52A7.571 7.571 0 0 0 22.458 0zm-.023 11.24v.5a10.756 10.756 0 0 1-10.92 10.76 10.963 10.963 0 0 1-5.877-1.69c.31.02.6.05.9.05a7.687 7.687 0 0 0 4.759-1.62 3.843 3.843 0 0 1-3.593-2.62 3.457 3.457 0 0 0 .714.07 3.73 3.73 0 0 0 1.023-.14 3.808 3.808 0 0 1-3.022-3.72v-.04a3.7 3.7 0 0 0 1.713.47 3.752 3.752 0 0 1-1.713-3.14 3.8 3.8 0 0 1 .524-1.91 10.99 10.99 0 0 0 7.9 3.96 3.549 3.549 0 0 1-.1-.86 3.8 3.8 0 0 1 3.831-3.79 3.93 3.93 0 0 1 2.807 1.19 7.032 7.032 0 0 0 2.426-.92 3.879 3.879 0 0 1-1.689 2.09 7.42 7.42 0 0 0 2.213-.59 7.963 7.963 0 0 1-1.896 1.95z" fill="#fff" fill-rule="evenodd" opacity=".5"/></svg>